<?xml version="1.0" encoding="utf-8"?>
<!-- Generator: Adobe Illustrator 24.0.0, SVG Export Plug-In . SVG Version: 6.00 Build 0)  -->
<svg version="1.1" xmlns="http://www.w3.org/2000/svg" xmlns:xlink="http://www.w3.org/1999/xlink" x="0px" y="0px"
	 viewBox="0 0 24 24" style="enable-background:new 0 0 24 24;" xml:space="preserve">
<style type="text/css">
	.st0{fill:none;}
</style>
<g id="Layer_1">
	<path class="st0" d="M0,0h24v24H0V0z"/>
</g>
<g id="Layer_2">
	<path d="M12,3l-9.8,8.8c0,0,0,0.1,0,0.1h2.7C5,12,5,12,5,12.1v7.9C5,20,5,20,5.1,20h5.5c0,0,0.1,0,0.1-0.1l-0.2-1.5c0,0,0,0,0-0.1
		c-0.3-0.1-0.6-0.3-0.8-0.5c0,0,0,0-0.1,0l-1.3,0.5c-0.2,0.1-0.3,0-0.4-0.1l-1-1.8c-0.1-0.1,0-0.3,0.1-0.4L8,15.1c0-0.2,0-0.4,0-0.5
		s0-0.4,0-0.5l-1.1-0.9c-0.1-0.1-0.2-0.3-0.1-0.4l1-1.8c0.1-0.1,0.3-0.2,0.4-0.1l1.3,0.5c0,0,0,0,0.1,0c0.3-0.2,0.5-0.4,0.9-0.5
		c0,0,0,0,0-0.1l0.2-1.3c0-0.2,0.2-0.3,0.3-0.3H13c0.2,0,0.3,0.1,0.3,0.3l0.2,1.3c0,0,0,0,0,0.1c0.3,0.1,0.6,0.3,0.9,0.5
		c0,0,0,0,0.1,0l1.3-0.5c0.2-0.1,0.3,0,0.4,0.1l1,1.8c0.1,0.1,0,0.3-0.1,0.4L16,14c0,0.2,0,0.4,0,0.5s0,0.4,0,0.5l1.1,0.9
		c0.1,0.1,0.2,0.3,0.1,0.4l-1,1.8c-0.1,0.1-0.3,0.2-0.4,0.1l-1.3-0.5c0,0,0,0-0.1,0c-0.3,0.2-0.5,0.4-0.9,0.5c0,0,0,0,0,0.1
		l-0.2,1.5c0,0,0,0.1,0.1,0.1h5.5c0,0,0.1,0,0.1-0.1v-7.9c0,0,0-0.1,0.1-0.1h2.7c0.1,0,0.1-0.1,0-0.1L12,3C12,3,12,3,12,3z"/>
</g>
<g id="Layer_3">
	<circle cx="12" cy="14.6" r="1.5"/>
</g>
</svg>
